<?xml version="1.0" encoding="UTF-8" standalone="no"?>
<svg
   width="58"
   height="58"
   viewBox="0 0 58 58"
   fill="none"
   version="1.1"
   id="svg21"
   sodipodi:docname="kodekafe_logo.svg"
   inkscape:export-filename="/home/s1lv3r/downloads/kodekafe_logo.png"
   inkscape:export-xdpi="847.4483"
   inkscape:export-ydpi="847.4483"
   inkscape:version="1.1 (c4e8f9ed74, 2021-05-24)"
   xmlns:inkscape="http://www.inkscape.org/namespaces/inkscape"
   xmlns:sodipodi="http://sodipodi.sourceforge.net/DTD/sodipodi-0.dtd"
   xmlns="http://www.w3.org/2000/svg"
   xmlns:svg="http://www.w3.org/2000/svg">
  <sodipodi:namedview
     id="namedview23"
     pagecolor="#ff5555"
     bordercolor="#ffffff"
     borderopacity="1"
     inkscape:pageshadow="0"
     inkscape:pageopacity="1"
     inkscape:pagecheckerboard="1"
     showgrid="false"
     height="5800000px"
     inkscape:zoom="7.3577586"
     inkscape:cx="-8.5623902"
     inkscape:cy="12.571763"
     inkscape:window-width="1920"
     inkscape:window-height="1019"
     inkscape:window-x="0"
     inkscape:window-y="27"
     inkscape:window-maximized="1"
     inkscape:current-layer="layer1" />
  <g
     inkscape:groupmode="layer"
     id="layer1"
     inkscape:label="Layer 1">
    <g
       clip-path="url(#clip0)"
       id="g14"
       transform="matrix(0.88880013,0,0,0.88880013,3.2247963,9.4463972)">
      <path
         d="m 11.4627,3.21401 c -3.04746,0 -4.31935,0.81447 -4.31935,3.07931 V 17.1101 c 0,3.3048 -1.27503,4.2101 -3.41269,4.9338 2.13766,0.7236 3.41269,1.5412 3.41269,4.8429 v 10.8199 c 0,2.2617 1.2593,3.0793 4.31935,3.0793 V 44 C 5.32367,44 3.18602,42.0077 3.18602,37.2525 V 27.2032 C 3.18602,24.7159 2.41155,23.7574 0,23.7574 v -3.4459 c 2.41155,0 3.18602,-1.04 3.18602,-3.5304 V 6.74441 C 3.18602,1.99231 5.32367,0 11.4627,0 Z"
         fill="#fcfcfc"
         id="path2" />
      <path
         d="M 42.2618,6.74441 V 16.7937 c 0,2.506 0.8279,3.5304 3.4064,3.5304 v 3.4458 c -2.5785,0 -3.4064,0.9398 -3.4064,3.4458 V 37.265 c 0,4.7552 -2.2857,6.7475 -8.856,6.7475 V 40.786 c 3.2615,0 4.6216,-0.8176 4.6216,-3.0793 V 26.8868 c 0,-3.3017 1.3632,-4.1193 3.6519,-4.8429 -2.2887,-0.7237 -3.6519,-1.629 -3.6519,-4.9338 V 6.29332 c 0,-2.26484 -1.3601,-3.07931 -4.6216,-3.07931 V 0 c 6.5766,0 8.856,1.99231 8.856,6.74441 z"
         fill="#fcfcfc"
         id="path4" />
      <path
         d="m 26.908,13.3165 -6.7089,19.472 -2.4808,-0.7173 6.69,-19.4501 z"
         fill="#fcfcfc"
         id="path6" />
      <path
         d="m 35.1437,21.0602 -0.3747,4.4076 -7.8359,5.4819 -0.6958,-3.8655 6.2556,-3.9314 -5.4843,-4.0723 1.1838,-3.5179 z"
         fill="#fcfcfc"
         id="path8" />
      <path
         d="m 19.2703,17.486 -6.2965,3.9909 5.5252,4.0253 -1.2215,3.6306 -6.9513,-5.4694 0.3778,-4.4044 7.8328,-5.5133 z"
         fill="#fcfcfc"
         id="path10" />
      <path
         d="m 45.6685,10.2216 v 3.5241 h 8.6072 v 17.204 h -8.6072 v 3.4772 H 58.0001 V 10.2216 Z"
         fill="#fcfcfc"
         id="path12" />
    </g>
  </g>
  <defs
     id="defs19">
    <clipPath
       id="clip0">
      <rect
         width="58"
         height="44"
         fill="#ffffff"
         id="rect16"
         x="0"
         y="0" />
    </clipPath>
  </defs>
</svg>
